<svg xmlns="http://www.w3.org/2000/svg" viewBox="0 0 1600 900" role="img" aria-labelledby="title desc">
  <title id="title">BarakiBar Web PDA landscape preview</title>
  <desc id="desc">Illustrated dashboard and mobile interface preview for a bar and restaurant web point of sale system.</desc>
  <defs>
    <linearGradient id="bg" x1="0" x2="1" y1="0" y2="1">
      <stop offset="0%" stop-color="#0f172a"/>
      <stop offset="100%" stop-color="#1d3557"/>
    </linearGradient>
    <linearGradient id="hero" x1="0" x2="1" y1="0" y2="0">
      <stop offset="0%" stop-color="#f59e0b"/>
      <stop offset="100%" stop-color="#fb7185"/>
    </linearGradient>
  </defs>

  <rect width="1600" height="900" fill="url(#bg)"/>
  <circle cx="184" cy="144" r="108" fill="#f59e0b" opacity="0.12"/>
  <circle cx="1420" cy="152" r="118" fill="#38bdf8" opacity="0.1"/>
  <circle cx="1290" cy="760" r="170" fill="#fb7185" opacity="0.1"/>

  <rect x="94" y="84" width="976" height="640" rx="34" fill="#f8fafc" opacity="0.98"/>
  <rect x="94" y="84" width="976" height="74" rx="34" fill="#e2e8f0"/>
  <circle cx="138" cy="122" r="10" fill="#fb7185"/>
  <circle cx="168" cy="122" r="10" fill="#f59e0b"/>
  <circle cx="198" cy="122" r="10" fill="#34d399"/>
  <text x="254" y="130" fill="#0f172a" font-size="28" font-family="Segoe UI, Arial, sans-serif" font-weight="700">BarakiBar Web PDA</text>

  <rect x="132" y="188" width="220" height="496" rx="28" fill="#14233a"/>
  <text x="168" y="236" fill="#f8fafc" font-size="30" font-family="Segoe UI, Arial, sans-serif" font-weight="700">Tables</text>
  <g font-family="Segoe UI, Arial, sans-serif">
    <rect x="168" y="272" width="148" height="94" rx="22" fill="#1f3555"/>
    <text x="242" y="326" fill="#f8fafc" text-anchor="middle" font-size="34" font-weight="700">Table 7</text>
    <text x="242" y="350" fill="#94a3b8" text-anchor="middle" font-size="18">Open bill</text>

    <rect x="168" y="386" width="148" height="94" rx="22" fill="#14532d"/>
    <text x="242" y="440" fill="#f8fafc" text-anchor="middle" font-size="34" font-weight="700">Table 9</text>
    <text x="242" y="464" fill="#bbf7d0" text-anchor="middle" font-size="18">Paid</text>

    <rect x="168" y="500" width="148" height="94" rx="22" fill="#7c2d12"/>
    <text x="242" y="554" fill="#f8fafc" text-anchor="middle" font-size="34" font-weight="700">Bar 1</text>
    <text x="242" y="578" fill="#fed7aa" text-anchor="middle" font-size="18">Running</text>
  </g>

  <rect x="388" y="188" width="644" height="306" rx="28" fill="#e2e8f0"/>
  <text x="430" y="236" fill="#0f172a" font-size="30" font-family="Segoe UI, Arial, sans-serif" font-weight="700">Live Order and Billing</text>
  <rect x="430" y="270" width="254" height="48" rx="20" fill="#ffffff"/>
  <text x="458" y="301" fill="#0f172a" font-size="22" font-family="Segoe UI, Arial, sans-serif">Table 7 • 3 guests</text>
  <rect x="430" y="344" width="560" height="22" rx="11" fill="#cbd5e1"/>
  <rect x="430" y="388" width="560" height="22" rx="11" fill="#cbd5e1"/>
  <rect x="430" y="432" width="376" height="22" rx="11" fill="#cbd5e1"/>
  <rect x="836" y="430" width="154" height="34" rx="17" fill="url(#hero)"/>
  <text x="913" y="453" fill="#0f172a" text-anchor="middle" font-size="18" font-family="Segoe UI, Arial, sans-serif" font-weight="700">Split payment</text>

  <rect x="388" y="522" width="644" height="162" rx="28" fill="#e2e8f0"/>
  <text x="430" y="570" fill="#0f172a" font-size="30" font-family="Segoe UI, Arial, sans-serif" font-weight="700">Admin and Stock Control</text>
  <rect x="430" y="602" width="244" height="38" rx="19" fill="#ffffff"/>
  <text x="458" y="627" fill="#64748b" font-size="18" font-family="Segoe UI, Arial, sans-serif">Search menu item</text>
  <rect x="718" y="592" width="272" height="64" rx="24" fill="#1f3555"/>
  <rect x="744" y="612" width="98" height="22" rx="11" fill="#34d399"/>
  <text x="860" y="629" fill="#d1fae5" font-size="18" font-family="Segoe UI, Arial, sans-serif">Stock updated live</text>

  <rect x="1132" y="112" width="324" height="628" rx="42" fill="#111827" stroke="#ffffff" stroke-opacity="0.15"/>
  <rect x="1162" y="162" width="264" height="30" rx="15" fill="#253348"/>
  <text x="1168" y="236" fill="#f8fafc" font-size="28" font-family="Segoe UI, Arial, sans-serif" font-weight="700">Mobile-first UI</text>
  <rect x="1168" y="270" width="118" height="96" rx="22" fill="#1f3555"/>
  <rect x="1300" y="270" width="118" height="96" rx="22" fill="#14532d"/>
  <rect x="1168" y="386" width="250" height="22" rx="11" fill="#334155"/>
  <rect x="1168" y="428" width="250" height="22" rx="11" fill="#334155"/>
  <rect x="1168" y="470" width="188" height="22" rx="11" fill="#334155"/>
  <rect x="1168" y="534" width="172" height="44" rx="22" fill="url(#hero)"/>
  <text x="1254" y="563" fill="#0f172a" text-anchor="middle" font-size="18" font-family="Segoe UI, Arial, sans-serif" font-weight="700">Take payment</text>
  <text x="1168" y="638" fill="#f8fafc" font-size="20" font-family="Segoe UI, Arial, sans-serif">SignalR live sync</text>
  <path d="M1188 676c24-24 62-24 86 0" fill="none" stroke="#38bdf8" stroke-linecap="round" stroke-width="8"/>
  <path d="M1172 708c34-34 104-34 138 0" fill="none" stroke="#38bdf8" stroke-linecap="round" stroke-width="8" opacity="0.8"/>
  <path d="M1154 742c46-46 138-46 184 0" fill="none" stroke="#38bdf8" stroke-linecap="round" stroke-width="8" opacity="0.6"/>

  <rect x="94" y="760" width="1362" height="92" rx="30" fill="#0b1220" stroke="#ffffff" stroke-opacity="0.08"/>
  <rect x="128" y="786" width="202" height="40" rx="20" fill="url(#hero)"/>
  <text x="229" y="813" fill="#0f172a" text-anchor="middle" font-size="18" font-family="Segoe UI, Arial, sans-serif" font-weight="700">ASP.NET Core + SignalR</text>
  <text x="366" y="814" fill="#f8fafc" font-size="32" font-family="Segoe UI, Arial, sans-serif" font-weight="700">Responsive POS and order management for bars and restaurants</text>
</svg>
