<svg xmlns="http://www.w3.org/2000/svg" viewBox="0 0 600 650" role="img" aria-labelledby="title desc">
  <title id="title">BarakiBar Web PDA thumbnail</title>
  <desc id="desc">Illustrated preview of a web-based point of sale dashboard for bars and restaurants.</desc>
  <defs>
    <linearGradient id="bg" x1="0" x2="1" y1="0" y2="1">
      <stop offset="0%" stop-color="#101827"/>
      <stop offset="100%" stop-color="#1f3a5f"/>
    </linearGradient>
    <linearGradient id="panel" x1="0" x2="1" y1="0" y2="1">
      <stop offset="0%" stop-color="#16253a"/>
      <stop offset="100%" stop-color="#0f172a"/>
    </linearGradient>
    <linearGradient id="accent" x1="0" x2="1" y1="0" y2="0">
      <stop offset="0%" stop-color="#f59e0b"/>
      <stop offset="100%" stop-color="#fb7185"/>
    </linearGradient>
  </defs>

  <rect width="600" height="650" fill="url(#bg)"/>
  <circle cx="90" cy="92" r="66" fill="#f59e0b" opacity="0.12"/>
  <circle cx="522" cy="102" r="82" fill="#38bdf8" opacity="0.12"/>
  <circle cx="486" cy="544" r="96" fill="#fb7185" opacity="0.12"/>

  <rect x="46" y="54" width="508" height="420" rx="28" fill="url(#panel)" stroke="#ffffff" stroke-opacity="0.1"/>
  <rect x="72" y="82" width="456" height="24" rx="12" fill="#233552"/>
  <circle cx="96" cy="94" r="5.5" fill="#fb7185"/>
  <circle cx="114" cy="94" r="5.5" fill="#f59e0b"/>
  <circle cx="132" cy="94" r="5.5" fill="#34d399"/>
  <rect x="412" y="87" width="94" height="14" rx="7" fill="#334a70"/>

  <rect x="72" y="128" width="182" height="166" rx="20" fill="#132238"/>
  <text x="96" y="158" fill="#f8fafc" font-size="18" font-family="Segoe UI, Arial, sans-serif" font-weight="700">Tables</text>
  <g font-family="Segoe UI, Arial, sans-serif">
    <rect x="96" y="178" width="60" height="48" rx="14" fill="#1f3555"/>
    <text x="126" y="208" fill="#f8fafc" text-anchor="middle" font-size="16" font-weight="700">T7</text>
    <rect x="170" y="178" width="60" height="48" rx="14" fill="#14532d"/>
    <text x="200" y="208" fill="#f8fafc" text-anchor="middle" font-size="16" font-weight="700">T9</text>
    <rect x="96" y="238" width="60" height="48" rx="14" fill="#7c2d12"/>
    <text x="126" y="268" fill="#f8fafc" text-anchor="middle" font-size="16" font-weight="700">BAR</text>
    <rect x="170" y="238" width="60" height="48" rx="14" fill="#1f3555"/>
    <text x="200" y="268" fill="#f8fafc" text-anchor="middle" font-size="16" font-weight="700">T12</text>
  </g>

  <rect x="274" y="128" width="254" height="166" rx="20" fill="#132238"/>
  <text x="298" y="158" fill="#f8fafc" font-size="18" font-family="Segoe UI, Arial, sans-serif" font-weight="700">Live Order</text>
  <rect x="298" y="180" width="190" height="28" rx="12" fill="#233552"/>
  <text x="314" y="199" fill="#e2e8f0" font-size="12" font-family="Segoe UI, Arial, sans-serif">Table 7 - 3 guests</text>
  <rect x="298" y="222" width="190" height="12" rx="6" fill="#334a70"/>
  <rect x="298" y="248" width="190" height="12" rx="6" fill="#334a70"/>
  <rect x="298" y="274" width="126" height="12" rx="6" fill="#334a70"/>

  <rect x="72" y="318" width="456" height="128" rx="20" fill="#132238"/>
  <text x="96" y="348" fill="#f8fafc" font-size="18" font-family="Segoe UI, Arial, sans-serif" font-weight="700">Admin and Stock</text>
  <rect x="96" y="368" width="176" height="24" rx="12" fill="#233552"/>
  <text x="114" y="385" fill="#cbd5e1" font-size="12" font-family="Segoe UI, Arial, sans-serif">Search menu item</text>
  <rect x="96" y="406" width="184" height="12" rx="6" fill="#334a70"/>
  <rect x="96" y="426" width="148" height="12" rx="6" fill="#334a70"/>
  <rect x="340" y="364" width="156" height="56" rx="18" fill="#1f3555"/>
  <rect x="358" y="382" width="60" height="12" rx="6" fill="#34d399"/>
  <text x="430" y="392" fill="#d1fae5" font-size="11" font-family="Segoe UI, Arial, sans-serif">Stock sync</text>

  <rect x="46" y="502" width="508" height="102" rx="24" fill="#0b1220" stroke="#ffffff" stroke-opacity="0.08"/>
  <rect x="72" y="526" width="156" height="28" rx="14" fill="url(#accent)"/>
  <text x="150" y="545" fill="#0f172a" text-anchor="middle" font-size="12" font-family="Segoe UI, Arial, sans-serif" font-weight="700">ASP.NET Core POS</text>
  <text x="72" y="576" fill="#f8fafc" font-size="28" font-family="Segoe UI, Arial, sans-serif" font-weight="700">BarakiBar Web PDA</text>
  <text x="72" y="596" fill="#94a3b8" font-size="14" font-family="Segoe UI, Arial, sans-serif">Real-time, mobile-first order management</text>
</svg>
